# xmcd
# 
# Track frame offsets:
#     150
#     17580
#     36065
#     49740
#     62325
#     73805
#     84865
#     96845
#     111285
#     124585
#     139020
#     152875
#     170820
#     187680
#     199655
#     215250
#     227455
#     244545
#     262545
#     280705
#     296790
#     306815
# 
# Disc length: 4315
# 
# Revision: 7
# Processed by: cddbd v1.5.2PL0 Copyright (c) Steve Scherf et al.
# Submitted via: BonkEnc v1.0.6
# 
DISCID=2310d916
DTITLE=Amado Batista V2 - Amado Batista - Dose Dupla V2
DYEAR=0
DGENRE=Sertaneja
TTITLE0=O julgamento - 3,52
TTITLE1=Filho do sertao - 4,06
TTITLE2=Sentado na praca - 3,02
TTITLE3=Favela - 2,47
TTITLE4=O amor nao e so de rosas - 2,33
TTITLE5=Fagulhas de amor - 2,27
TTITLE6=Ultima lembranca - 2,39
TTITLE7=Voce perdeu um amor - 3,12
TTITLE8=Quando voce voltar - 2,57
TTITLE9=O relogio atrasou - 3,12
TTITLE10=Filho proibido - 3,04
TTITLE11=Te amei, te amo e por voce eu chorei - 3,59
TTITLE12=Casa bonita - 3,44
TTITLE13=Meu equilibrio - 2,39
TTITLE14=O bilhetinho - 3,27
TTITLE15=Nao bebo alcool - 2,42
TTITLE16=Pensando em voce - 3,47
TTITLE17=Mulher carinhosa - 4,00
TTITLE18=Quando eu for embora - 4,02
TTITLE19=Estradas - 3,34
TTITLE20=Voz do vento - 2,13
TTITLE21=Oh! Deus - 3,44
EXTD=
EXTT0=
EXTT1=
EXTT2=
EXTT3=
EXTT4=
EXTT5=
EXTT6=
EXTT7=
EXTT8=
EXTT9=
EXTT10=
EXTT11=
EXTT12=
EXTT13=
EXTT14=
EXTT15=
EXTT16=
EXTT17=
EXTT18=
EXTT19=
EXTT20=
EXTT21=
PLAYORDER=
